# xmcd
#
# Track frame offsets: 
#        150
#        17242
#        34372
#        51246
#        67389
#        83194
#        99642
#        117056
#        131909
#        150775
#        173234
#        189668
#        208723
#        225461
#        242961
#        261632
#        279170
#        297252
#        314220
#        332895
#
# Disc length: 4643 seconds
#
# Revision: 1
# Processed by: cddbd v1.5.1PL0 Copyright (c) Steve Scherf et al.
# Submitted via: ExactAudioCopy v0.95a5
#
DISCID=37122114
DTITLE=Various Artist - Essential R&B Spring 2005 CD1
DYEAR=2005
DGENRE=R&B
TTITLE0=Jennifer Lopez - Get Right
TTITLE1=Destiny's Child - Soldier
TTITLE2=Ciara feat. Petey Pablo - Goodies
TTITLE3=50 Cent feat. Nate Dogg - 21 Questions
TTITLE4=Raghav feat. Frankey Maxx and Jucxi D - Angel Eyes
TTITLE5=John Legend - Let's Get Lifted
TTITLE6=Alicia Keys feat. Usher - If I Ain' t Got You
TTITLE7=Christina Milian - Dip It Low
TTITLE8=Terror Squad - Lean Back
TTITLE9=R.Kelly - Happy People
TTITLE10=Ashanti - Rock With U (Awww Baby)
TTITLE11=Outkast - Roses
TTITLE12=LL Cool J - Loungin (Who Do Ya Luv)
TTITLE13=Jill Scott - Golden
TTITLE14=Anthony Hamilton - Charlene
TTITLE15=Tweet feat. Missy Elliott - Oops (Oh My)
TTITLE16=JoJo - Leave (Get Out)
TTITLE17=Kelis feat. Andre 3000 - Millionaire
TTITLE18=Cassidy feat. R. Kelly - Hotel
TTITLE19=Jay-Z feat. Beyonce Knowles - 03' Bonnie and Clyde
EXTD=
EXTT0=
EXTT1=
EXTT2=
EXTT3=
EXTT4=
EXTT5=
EXTT6=
EXTT7=
EXTT8=
EXTT9=
EXTT10=
EXTT11=
EXTT12=
EXTT13=
EXTT14=
EXTT15=
EXTT16=
EXTT17=
EXTT18=
EXTT19=
PLAYORDER=
